<svg width="114" height="32" viewBox="0 0 114 32" fill="none" xmlns="http://www.w3.org/2000/svg">
<path d="M18.4 31.04C18.08 31.04 17.8533 30.96 17.72 30.8C17.6133 30.64 17.56 30.4133 17.56 30.12C17.56 29.5333 17.6933 28.6267 17.96 27.4C18.2533 26.28 18.4 25.36 18.4 24.64C18.4 22.56 18.24 20.9733 17.92 19.88H16.68C15.5867 19.88 14.16 19.8533 12.4 19.8L8.64 19.76H3.24L3.32 21.32C3.32 22.5467 3.52 24.08 3.92 25.92C4.05333 26.6667 4.17333 27.4267 4.28 28.2C4.41333 28.9467 4.48 29.6267 4.48 30.24V30.6C4.21333 30.8667 3.93333 31 3.64 31C2.94667 31 2.4 30.1867 2 28.56C1.6 26.9067 1.4 24.92 1.4 22.6C1.4 21.6667 1.44 20.7467 1.52 19.84C0.933333 19.8133 0.533333 19.72 0.32 19.56C0.106667 19.3733 2.98023e-08 19.0933 2.98023e-08 18.72C2.98023e-08 18.4267 0.08 18.2267 0.24 18.12C0.426667 18.0133 0.746667 17.9333 1.2 17.88L1.16 16.8L1.28 14.96C1.46667 11.9467 1.74667 9.49333 2.12 7.6C2.49333 5.70667 3.29333 4.06667 4.52 2.68C5.74667 1.29333 7.58667 0.599998 10.04 0.599998C12.84 0.599998 15.0267 2.10667 16.6 5.12C18.1733 8.13333 19.24 11.4933 19.8 15.2C20.36 18.9067 20.64 22.0933 20.64 24.76C20.64 25.72 20.6133 26.56 20.56 27.28C20.5067 27.9733 20.4 28.84 20.24 29.88C19.6267 30.6533 19.0133 31.04 18.4 31.04ZM17.76 18.32C17.2533 13.3867 16.3467 9.52 15.04 6.72C13.7333 3.89333 11.7733 2.48 9.16 2.48C7.21333 2.48 5.77333 3.38666 4.84 5.2C3.93333 6.98667 3.38667 8.90667 3.2 10.96C3.01333 13.0133 2.92 15.32 2.92 17.88L17.76 18.32ZM27.7684 31C26.6751 28.8667 25.8084 26.36 25.1684 23.48C24.5551 20.6 24.2484 18.1067 24.2484 16C24.2484 15.1733 24.4351 14.64 24.8084 14.4C25.0218 14.2667 25.1818 14.2 25.2884 14.2C25.4751 14.2 25.6084 14.3467 25.6884 14.64C25.7951 14.9333 25.9018 15.4667 26.0084 16.24L26.2084 17.68C26.5018 16.24 27.0618 15.1067 27.8884 14.28C28.7418 13.4267 29.7818 13 31.0084 13C32.3684 13 33.3818 13.2667 34.0484 13.8C34.7151 14.3067 35.0484 15.16 35.0484 16.36C33.7151 15.72 32.5018 15.4 31.4084 15.4C30.3684 15.4 29.4751 15.68 28.7284 16.24C27.9818 16.8 27.4618 17.6267 27.1684 18.72C26.9284 19.4667 26.8084 20.1733 26.8084 20.84C26.8084 21.56 26.9018 22.24 27.0884 22.88C27.3018 23.4933 27.6218 24.2533 28.0484 25.16C28.4484 26.0933 28.7551 26.8933 28.9684 27.56C29.2084 28.2267 29.3418 28.9467 29.3684 29.72C29.3684 30.1733 29.2084 30.5067 28.8884 30.72C28.5684 30.9067 28.1951 31 27.7684 31ZM43.0713 31C42.8046 31.0533 42.6313 31.08 42.5513 31.08C41.7246 31.08 41.1513 30.4667 40.8313 29.24C40.5379 28.0133 40.3913 26.2933 40.3913 24.08C40.3913 23.1733 40.4179 21.76 40.4713 19.84C40.5246 18.6667 40.5513 17.7867 40.5513 17.2C37.2713 17.2 35.6313 16.8267 35.6313 16.08C35.6313 15.84 35.6579 15.6533 35.7113 15.52C35.7913 15.3867 35.9513 15.32 36.1913 15.32L40.5513 15.04C40.5246 13.7333 40.4579 12.3067 40.3513 10.76C40.2446 9.37333 40.1779 8.09333 40.1513 6.92C40.1513 6.62666 40.2713 6.42667 40.5113 6.32C40.7513 6.18667 41.0046 6.12 41.2713 6.12C41.5913 6.12 41.8579 6.29333 42.0713 6.64C42.2846 6.96 42.3913 7.29333 42.3913 7.64L42.6713 14.96L45.9913 15.12C46.4979 15.0667 46.9246 15.16 47.2713 15.4C47.6446 15.64 47.8446 16.04 47.8713 16.6C47.3113 16.84 46.6979 16.9867 46.0313 17.04C45.3646 17.0933 44.2446 17.12 42.6713 17.12C42.6713 19.6 42.7913 23.68 43.0313 29.36C43.0313 29.9467 43.0313 30.36 43.0313 30.6C43.0579 30.8133 43.0713 30.9467 43.0713 31ZM73.1088 29.48C75.2954 29.48 76.9888 29.1733 78.1888 28.56C79.3888 27.9467 79.9888 27.0533 79.9888 25.88C79.9888 24.84 79.6288 23.9467 78.9088 23.2C78.1888 22.4267 77.2954 21.7733 76.2288 21.24C75.1621 20.7067 73.7088 20.08 71.8688 19.36C71.7088 19.3067 71.3221 19.16 70.7088 18.92C68.2021 17.9067 66.2688 16.8933 64.9088 15.88C63.5754 14.8667 62.9088 13.56 62.9088 11.96C62.9088 10.1733 63.6154 8.82667 65.0288 7.92C66.4421 7.01333 68.2554 6.56 70.4688 6.56C72.0954 6.56 73.5888 6.77333 74.9488 7.2C76.3354 7.6 77.4288 8.16 78.2288 8.88C79.0554 9.6 79.4688 10.4133 79.4688 11.32C79.1488 11.48 78.8421 11.56 78.5488 11.56C78.2288 11.56 77.8954 11.4933 77.5488 11.36C77.2288 11.2 76.7488 10.9467 76.1088 10.6C75.0688 10.04 74.0954 9.6 73.1888 9.28C72.2821 8.93333 71.2154 8.76 69.9888 8.76C68.4421 8.76 67.1888 9.02667 66.2288 9.56C65.2688 10.0933 64.7888 10.84 64.7888 11.8C64.7888 12.5467 65.1088 13.2267 65.7488 13.84C66.4154 14.4533 67.2421 15 68.2288 15.48C69.2421 15.9333 70.5888 16.48 72.2688 17.12C74.4021 17.9467 76.1621 18.72 77.5488 19.44C78.9354 20.16 80.1088 21.08 81.0687 22.2C82.0554 23.2933 82.5488 24.6 82.5488 26.12C82.5488 27.9067 81.6954 29.2933 79.9888 30.28C78.2821 31.24 76.1621 31.72 73.6288 31.72C71.6288 31.72 69.6554 31.4267 67.7088 30.84C65.7621 30.2533 64.0954 29.3867 62.7088 28.24C61.3221 27.0667 60.4421 25.6667 60.0688 24.04C60.0688 23.32 60.2688 22.7067 60.6688 22.2C61.0688 21.6667 61.5621 21.4 62.1488 21.4C62.1488 23.1333 62.6288 24.6133 63.5888 25.84C64.5754 27.04 65.8954 27.9467 67.5488 28.56C69.2288 29.1733 71.0821 29.48 73.1088 29.48ZM95.1728 31C93.4661 31 91.8928 30.6667 90.4528 30C89.0128 29.3333 87.8661 28.3867 87.0128 27.16C86.1595 25.9333 85.7328 24.52 85.7328 22.92C85.7328 21.1333 86.0661 19.4667 86.7328 17.92C87.3995 16.3467 88.3728 15.0933 89.6528 14.16C90.9595 13.2 92.4795 12.72 94.2128 12.72C96.0261 12.72 97.3995 13.3067 98.3328 14.48C99.2661 15.6267 99.7061 17.08 99.6528 18.84C99.6528 20.4133 99.0261 21.6133 97.7728 22.44C96.5461 23.2667 94.9728 23.68 93.0528 23.68C92.7595 23.68 92.3195 23.6533 91.7328 23.6C90.7728 23.4933 90.0928 23.3467 89.6928 23.16C89.2928 22.9733 89.0928 22.6 89.0928 22.04C89.0928 21.8533 89.1461 21.72 89.2528 21.64C89.3595 21.5333 89.5728 21.48 89.8928 21.48C90.2395 21.48 90.8528 21.56 91.7328 21.72C92.5861 21.88 93.3461 21.96 94.0128 21.96C96.4661 21.96 97.6928 20.8933 97.6928 18.76C97.6928 17.48 97.4528 16.4667 96.9728 15.72C96.5195 14.9733 95.7061 14.6 94.5328 14.6C93.2528 14.6 92.1061 14.9467 91.0928 15.64C90.0795 16.3067 89.2928 17.1867 88.7328 18.28C88.1995 19.3733 87.9328 20.5333 87.9328 21.76C87.9328 23.8667 88.5195 25.6 89.6928 26.96C90.8661 28.2933 92.6795 28.96 95.1328 28.96C95.4261 28.96 95.9195 28.9333 96.6128 28.88C96.9061 28.8533 97.2661 28.7733 97.6928 28.64C98.1195 28.5067 98.4261 28.4133 98.6128 28.36C99.7595 27.96 100.599 27.76 101.133 27.76C101.533 27.76 101.839 27.8667 102.053 28.08C101.386 29.0933 100.386 29.84 99.0528 30.32C97.7461 30.7733 96.4528 31 95.1728 31ZM105.863 30.72C105.276 27.8133 104.823 24.3733 104.503 20.4C104.209 16.4 104.063 12.5333 104.063 8.8C104.063 6.93333 104.103 5.28 104.183 3.84C104.183 3.49333 104.449 3.32 104.983 3.32C105.409 3.32 105.676 3.42667 105.783 3.64C105.916 3.85333 105.983 4.18666 105.983 4.64C105.983 8.96 106.063 12.6533 106.223 15.72C106.383 18.76 106.596 22.04 106.863 25.56C107.023 27.8267 107.129 29.36 107.183 30.16C107.209 30.5867 106.983 30.8 106.503 30.8C106.343 30.8 106.129 30.7733 105.863 30.72ZM112.581 30.72C111.995 27.8133 111.541 24.3733 111.221 20.4C110.928 16.4 110.781 12.5333 110.781 8.8C110.781 6.93333 110.821 5.28 110.901 3.84C110.901 3.49333 111.168 3.32 111.701 3.32C112.128 3.32 112.395 3.42667 112.501 3.64C112.635 3.85333 112.701 4.18666 112.701 4.64C112.701 8.96 112.781 12.6533 112.941 15.72C113.101 18.76 113.315 22.04 113.581 25.56C113.741 27.8267 113.848 29.36 113.901 30.16C113.928 30.5867 113.701 30.8 113.221 30.8C113.061 30.8 112.848 30.7733 112.581 30.72Z" fill="black"/>
</svg>
